<svg xmlns="http://www.w3.org/2000/svg" width="1200" height="800" viewBox="0 0 1200 800">
  <defs>
    <linearGradient id="bg" x1="0" y1="0" x2="1" y2="1">
      <stop offset="0" stop-color="#0b1020"/>
      <stop offset="1" stop-color="#0f1630"/>
    </linearGradient>
    <linearGradient id="gold" x1="0" y1="0" x2="1" y2="0">
      <stop offset="0" stop-color="#b48642" stop-opacity="0.95"/>
      <stop offset="1" stop-color="#b48642" stop-opacity="0.55"/>
    </linearGradient>
  </defs>
  <rect width="1200" height="800" fill="url(#bg)"/>
  <circle cx="260" cy="560" r="260" fill="#00c194" opacity="0.08"/>
  <circle cx="980" cy="220" r="320" fill="#b48642" opacity="0.10"/>

  <!-- SUV silhouette -->
  <g transform="translate(120 360)" fill="none" stroke="#eaf0ff" stroke-opacity="0.85" stroke-width="10" stroke-linecap="round" stroke-linejoin="round">
    <path d="M80 150 L160 90 Q220 50 290 50 H540 Q610 50 680 95 L760 150" />
    <path d="M80 150 H780" />
    <path d="M220 50 L260 150" />
    <path d="M560 50 L620 150" />
    <circle cx="240" cy="162" r="40" />
    <circle cx="640" cy="162" r="40" />
  </g>

  <rect x="90" y="80" width="460" height="72" rx="18" fill="rgba(255,255,255,0.04)" stroke="rgba(255,255,255,0.10)"/>
  <rect x="90" y="80" width="12" height="72" rx="6" fill="url(#gold)"/>

  <text x="120" y="128" fill="#eaf0ff" font-size="34" font-family="Tahoma, Arial, sans-serif" font-weight="700">Nissan Patrol</text>
  <text x="90" y="190" fill="#8ea0c6" font-size="22" font-family="Tahoma, Arial, sans-serif">Sample image (SVG)</text>
</svg>
